<?xml version="1.0" encoding="UTF-8"?>
<svg version="1.1" xmlns="http://www.w3.org/2000/svg" width="173" height="83">
<path d="M0 0 C0.97714966 -0.00249756 1.95429932 -0.00499512 2.96105957 -0.00756836 C5.77355469 -0.01347324 8.58594109 -0.01196489 11.3984375 -0.0078125 C12.24117218 -0.00979645 13.08390686 -0.0117804 13.95217896 -0.01382446 C18.26311755 0.00313542 22.41453355 0.08044704 26.625 1.125 C28.62649936 5.12799872 27.80985209 10.22416731 27.8125 14.625 C27.82474609 15.69621094 27.83699219 16.76742187 27.84960938 17.87109375 C27.85154297 18.89332031 27.85347656 19.91554688 27.85546875 20.96875 C27.85957764 21.90912109 27.86368652 22.84949219 27.86791992 23.81835938 C27.625 26.125 27.625 26.125 25.625 28.125 C23.15309696 28.28325387 20.79885234 28.31755449 18.32958984 28.26025391 C17.20261436 28.24606163 17.20261436 28.24606163 16.0528717 28.23158264 C13.56364943 28.19784096 11.07491875 28.14974392 8.5859375 28.1015625 C6.86245009 28.07540194 5.13894891 28.0501344 3.41543579 28.02572632 C-1.12542108 27.95901092 -5.66598916 27.88013226 -10.206604 27.79876709 C-14.8381439 27.7179097 -19.46985343 27.64849062 -24.1015625 27.578125 C-33.19292097 27.4383133 -42.28396741 27.28460247 -51.375 27.125 C-51.375 18.545 -51.375 9.965 -51.375 1.125 C-34.23524233 0.36323299 -17.15434903 0.01548671 0 0 Z M-42.375 5.125 C-42.375 5.455 -42.375 5.785 -42.375 6.125 C-39.405 6.455 -36.435 6.785 -33.375 7.125 C-33.375 6.465 -33.375 5.805 -33.375 5.125 C-36.345 5.125 -39.315 5.125 -42.375 5.125 Z M-41.375 8.125 C-40.375 10.125 -40.375 10.125 -40.375 10.125 Z M-42.375 10.125 C-42.705 11.115 -43.035 12.105 -43.375 13.125 C-45.4375 14.3125 -45.4375 14.3125 -47.375 15.125 C-46.385 15.125 -45.395 15.125 -44.375 15.125 C-44.045 15.785 -43.715 16.445 -43.375 17.125 C-42.385 15.475 -41.395 13.825 -40.375 12.125 C-41.035 11.465 -41.695 10.805 -42.375 10.125 Z M-19.375 8.125 C-19.375 8.785 -19.375 9.445 -19.375 10.125 C-20.695 10.455 -22.015 10.785 -23.375 11.125 C-22.385 11.125 -21.395 11.125 -20.375 11.125 C-20.045 11.785 -19.715 12.445 -19.375 13.125 C-19.375 12.465 -19.375 11.805 -19.375 11.125 C-18.715 10.795 -18.055 10.465 -17.375 10.125 C-18.035 9.465 -18.695 8.805 -19.375 8.125 Z M2.625 10.125 C2.295 11.445 1.965 12.765 1.625 14.125 C2.285 13.795 2.945 13.465 3.625 13.125 C3.295 12.135 2.965 11.145 2.625 10.125 Z M-27.375 13.125 C-27.045 13.785 -26.715 14.445 -26.375 15.125 C-26.045 14.465 -25.715 13.805 -25.375 13.125 C-26.035 13.125 -26.695 13.125 -27.375 13.125 Z M-21.375 13.125 C-20.375 15.125 -20.375 15.125 -20.375 15.125 Z M-3.375 13.125 C-3.375 14.445 -3.375 15.765 -3.375 17.125 C-2.715 17.125 -2.055 17.125 -1.375 17.125 C-1.705 15.805 -2.035 14.485 -2.375 13.125 C-2.705 13.125 -3.035 13.125 -3.375 13.125 Z M6.625 13.125 C7.615 14.61 7.615 14.61 8.625 16.125 C8.625 15.135 8.625 14.145 8.625 13.125 C7.965 13.125 7.305 13.125 6.625 13.125 Z M12.625 14.125 C12.625 15.115 12.625 16.105 12.625 17.125 C13.285 16.135 13.945 15.145 14.625 14.125 C13.965 14.125 13.305 14.125 12.625 14.125 Z M-36.375 15.125 C-35.375 19.125 -35.375 19.125 -35.375 19.125 Z M-33.375 15.125 C-32.375 18.125 -32.375 18.125 -32.375 18.125 Z M-22.375 15.125 C-22.375 17.105 -22.375 19.085 -22.375 21.125 C-22.045 21.125 -21.715 21.125 -21.375 21.125 C-21.375 19.145 -21.375 17.165 -21.375 15.125 C-21.705 15.125 -22.035 15.125 -22.375 15.125 Z M-45.375 18.125 C-44.375 20.125 -44.375 20.125 -44.375 20.125 Z " fill="#0E1347" transform="translate(134.375,28.875)"/>
<path d="M0 0 C1.20094299 0.00007553 2.40188599 0.00015106 3.63922119 0.00022888 C5.57689362 0.00797081 5.57689362 0.00797081 7.55371094 0.01586914 C8.89320828 0.01773522 10.23270632 0.01915823 11.57220459 0.02015686 C15.09031065 0.02396704 18.60837515 0.03378449 22.12646484 0.04486084 C25.71939532 0.05510723 29.31233255 0.05966139 32.90527344 0.06469727 C39.94956123 0.07540814 46.99382086 0.09246652 54.03808594 0.11352539 C53.30681677 4.21311693 52.0863707 7.21994191 50.03808594 10.86352539 C49.50183594 11.82774414 48.96558594 12.79196289 48.41308594 13.78540039 C47.03808594 16.11352539 47.03808594 16.11352539 46.03808594 17.11352539 C44.01314362 17.20762018 41.98488724 17.23095661 39.95776367 17.22705078 C38.00585365 17.22693748 38.00585365 17.22693748 36.01451111 17.2268219 C34.58356692 17.22171448 33.15262311 17.21649847 31.72167969 17.21118164 C30.26579334 17.20931742 28.80990636 17.20789354 27.35401917 17.20689392 C23.51529215 17.20306904 19.67660274 17.19323903 15.83789062 17.18218994 C11.92350778 17.17197517 8.00911888 17.16739616 4.09472656 17.16235352 C-3.59083749 17.15161673 -11.27637051 17.13454068 -18.96191406 17.11352539 C-18.28677674 13.27494406 -17.47604769 11.04557466 -15.02441406 7.98852539 C-13.23297654 5.72612027 -11.56650628 3.52041371 -9.96191406 1.11352539 C-6.71573429 -0.14688353 -3.44810128 -0.00724391 0 0 Z " fill="#1D285F" transform="translate(31.9619140625,10.886474609375)"/>
<path d="M0 0 C0.6824176 0.00565979 1.36483521 0.01131958 2.06793213 0.01715088 C4.23872262 0.03946864 6.40783706 0.08964992 8.578125 0.140625 C10.0533615 0.16069624 11.52862399 0.17894593 13.00390625 0.1953125 C16.61252001 0.2393162 20.22015881 0.30830917 23.828125 0.390625 C22.40934455 4.03924459 20.80469133 7.29395102 18.765625 10.640625 C18.23839844 11.51203125 17.71117187 12.3834375 17.16796875 13.28125 C15.828125 15.390625 15.828125 15.390625 14.828125 16.390625 C12.13576724 16.62741216 9.46314344 16.81260525 6.765625 16.953125 C5.62770508 17.01790039 5.62770508 17.01790039 4.46679688 17.08398438 C2.58747062 17.19036133 0.70782256 17.29102434 -1.171875 17.390625 C-1.501875 20.030625 -1.831875 22.670625 -2.171875 25.390625 C-1.5325 25.7 -0.893125 26.009375 -0.234375 26.328125 C1.828125 27.390625 1.828125 27.390625 2.828125 28.390625 C3.171875 30.62109375 3.171875 30.62109375 2.828125 33.390625 C0.859375 36.06640625 0.859375 36.06640625 -1.671875 38.703125 C-2.5071875 39.58613281 -3.3425 40.46914062 -4.203125 41.37890625 C-4.8528125 42.04277344 -5.5025 42.70664063 -6.171875 43.390625 C-11.11297077 42.05169171 -12.97468847 39.31834627 -15.421875 35.078125 C-15.7725 34.50900391 -16.123125 33.93988281 -16.484375 33.35351562 C-18.95087896 29.2221215 -20.53604573 25.8620758 -19.82421875 21.03125 C-17.93757046 14.72180326 -15.27967956 9.55300042 -11.171875 4.390625 C-10.62684326 3.69727051 -10.08181152 3.00391602 -9.52026367 2.28955078 C-6.27287663 -0.33631224 -4.13703029 -0.06782017 0 0 Z " fill="#1D275D" transform="translate(51.171875,29.609375)"/>
<path d="M0 0 C3.898125 0.0309375 3.898125 0.0309375 7.875 0.0625 C7.875 7.9825 7.875 15.9025 7.875 24.0625 C-16.875 24.0625 -41.625 24.0625 -67.125 24.0625 C-67.125 23.0725 -67.125 22.0825 -67.125 21.0625 C-65.145 21.3925 -63.165 21.7225 -61.125 22.0625 C-60.795 21.0725 -60.465 20.0825 -60.125 19.0625 C-59.4650321 17.39316942 -58.79941131 15.7260479 -58.125 14.0625 C-57.8775 14.68125 -57.63 15.3 -57.375 15.9375 C-55.91871361 18.41318687 -54.74687494 19.01375002 -52.125 20.0625 C-52.125 18.7425 -52.125 17.4225 -52.125 16.0625 C-49.45833333 16.0625 -46.79166667 16.0625 -44.125 16.0625 C-44.785 17.0525 -45.445 18.0425 -46.125 19.0625 C-44.14963255 18.71463292 -44.14963255 18.71463292 -42.125 18.0625 C-41.795 17.4025 -41.465 16.7425 -41.125 16.0625 C-41.310625 16.68125 -41.49625 17.3 -41.6875 17.9375 C-42.36186176 20.10410178 -42.36186176 20.10410178 -41.125 22.0625 C-40.135 21.7325 -39.145 21.4025 -38.125 21.0625 C-38.125 18.4225 -38.125 15.7825 -38.125 13.0625 C-37.465 13.0625 -36.805 13.0625 -36.125 13.0625 C-36.145625 14.031875 -36.16625 15.00125 -36.1875 16 C-36.48118499 18.93715895 -36.48118499 18.93715895 -35.125 20.0625 C-33.12541636 20.10330783 -31.12454746 20.10504356 -29.125 20.0625 C-28.795 19.4025 -28.465 18.7425 -28.125 18.0625 C-27.465 18.0625 -26.805 18.0625 -26.125 18.0625 C-25.795 17.4025 -25.465 16.7425 -25.125 16.0625 C-25.125 16.7225 -25.125 17.3825 -25.125 18.0625 C-23.805 17.7325 -22.485 17.4025 -21.125 17.0625 C-21.785 16.7325 -22.445 16.4025 -23.125 16.0625 C-22.795 15.0725 -22.465 14.0825 -22.125 13.0625 C-21.63 14.0525 -21.63 14.0525 -21.125 15.0625 C-20.135 15.0625 -19.145 15.0625 -18.125 15.0625 C-17.63 17.5375 -17.63 17.5375 -17.125 20.0625 C-16.465 17.7525 -15.805 15.4425 -15.125 13.0625 C-14.795 13.0625 -14.465 13.0625 -14.125 13.0625 C-14.125 14.7125 -14.125 16.3625 -14.125 18.0625 C-12.14963255 17.71463292 -12.14963255 17.71463292 -10.125 17.0625 C-9.795 16.4025 -9.465 15.7425 -9.125 15.0625 C-8.465 15.0625 -7.805 15.0625 -7.125 15.0625 C-7.125 16.0525 -7.125 17.0425 -7.125 18.0625 C-6.465 18.0625 -5.805 18.0625 -5.125 18.0625 C-5.125 17.0725 -5.125 16.0825 -5.125 15.0625 C-3.475 14.4025 -1.825 13.7425 -0.125 13.0625 C-0.125 13.7225 -0.125 14.3825 -0.125 15.0625 C0.865 15.5575 0.865 15.5575 1.875 16.0625 C0.39 16.5575 0.39 16.5575 -1.125 17.0625 C0.525 17.0625 2.175 17.0625 3.875 17.0625 C3.875 16.4025 3.875 15.7425 3.875 15.0625 C2.885 14.0725 2.885 14.0725 1.875 13.0625 C2.865 12.4025 3.855 11.7425 4.875 11.0625 C4.38 9.5775 4.38 9.5775 3.875 8.0625 C3.215 8.3925 2.555 8.7225 1.875 9.0625 C0.00120395 9.13283769 -1.87501102 9.1468022 -3.75 9.125 C-4.75289062 9.11597656 -5.75578125 9.10695313 -6.7890625 9.09765625 C-7.55992187 9.08605469 -8.33078125 9.07445312 -9.125 9.0625 C-9.104375 8.11375 -9.08375 7.165 -9.0625 6.1875 C-8.89948174 3.15583717 -8.89948174 3.15583717 -10.125 1.0625 C-6.93953711 -0.53023144 -3.49300652 -0.03891833 0 0 Z " fill="#1E265E" transform="translate(152.125,30.9375)"/>
<path d="M0 0 C0.97714966 -0.00249756 1.95429932 -0.00499512 2.96105957 -0.00756836 C5.77355469 -0.01347324 8.58594109 -0.01196489 11.3984375 -0.0078125 C12.24117218 -0.00979645 13.08390686 -0.0117804 13.95217896 -0.01382446 C18.26311755 0.00313542 22.41453355 0.08044704 26.625 1.125 C28.62649936 5.12799872 27.80985209 10.22416731 27.8125 14.625 C27.82474609 15.69621094 27.83699219 16.76742187 27.84960938 17.87109375 C27.85154297 18.89332031 27.85347656 19.91554688 27.85546875 20.96875 C27.85957764 21.90912109 27.86368652 22.84949219 27.86791992 23.81835938 C27.625 26.125 27.625 26.125 25.625 28.125 C23.15309696 28.28325387 20.79885234 28.31755449 18.32958984 28.26025391 C17.20261436 28.24606163 17.20261436 28.24606163 16.0528717 28.23158264 C13.56364943 28.19784096 11.07491875 28.14974392 8.5859375 28.1015625 C6.86245009 28.07540194 5.13894891 28.0501344 3.41543579 28.02572632 C-1.12542108 27.95901092 -5.66598916 27.88013226 -10.206604 27.79876709 C-14.8381439 27.7179097 -19.46985343 27.64849062 -24.1015625 27.578125 C-33.19292097 27.4383133 -42.28396741 27.28460247 -51.375 27.125 C-51.375 18.545 -51.375 9.965 -51.375 1.125 C-34.23524233 0.36323299 -17.15434903 0.01548671 0 0 Z M-50.375 2.125 C-50.375 4.435 -50.375 6.745 -50.375 9.125 C-49.715 8.465 -49.055 7.805 -48.375 7.125 C-46.70882885 7.08436168 -45.04111905 7.082279 -43.375 7.125 C-43.045 6.795 -42.715 6.465 -42.375 6.125 C-40.34375 6.17578125 -40.34375 6.17578125 -37.875 6.4375 C-37.0603125 6.51613281 -36.245625 6.59476563 -35.40625 6.67578125 C-34.40078125 6.89814453 -34.40078125 6.89814453 -33.375 7.125 C-33.045 7.785 -32.715 8.445 -32.375 9.125 C-34.685 8.795 -36.995 8.465 -39.375 8.125 C-39.705 9.115 -40.035 10.105 -40.375 11.125 C-38.725 11.125 -37.075 11.125 -35.375 11.125 C-35.045 11.785 -34.715 12.445 -34.375 13.125 C-33.385 13.455 -32.395 13.785 -31.375 14.125 C-32.365 14.62 -32.365 14.62 -33.375 15.125 C-33.78229228 17.44656597 -34.11938677 19.7818787 -34.375 22.125 C-36.99687494 21.07625002 -38.16871361 20.47568687 -39.625 18 C-39.8725 17.38125 -40.12 16.7625 -40.375 16.125 C-41.45025194 18.77728812 -42.46956151 21.40868454 -43.375 24.125 C-45.355 23.795 -47.335 23.465 -49.375 23.125 C-49.375 24.115 -49.375 25.105 -49.375 26.125 C-24.625 26.125 0.125 26.125 25.625 26.125 C25.625 18.205 25.625 10.285 25.625 2.125 C0.545 2.125 -24.535 2.125 -50.375 2.125 Z M-41.375 8.125 C-40.375 10.125 -40.375 10.125 -40.375 10.125 Z M-42.375 10.125 C-42.705 11.115 -43.035 12.105 -43.375 13.125 C-45.4375 14.3125 -45.4375 14.3125 -47.375 15.125 C-46.385 15.125 -45.395 15.125 -44.375 15.125 C-44.045 15.785 -43.715 16.445 -43.375 17.125 C-42.385 15.475 -41.395 13.825 -40.375 12.125 C-41.035 11.465 -41.695 10.805 -42.375 10.125 Z M-36.375 15.125 C-35.375 19.125 -35.375 19.125 -35.375 19.125 Z M-45.375 18.125 C-44.375 20.125 -44.375 20.125 -44.375 20.125 Z " fill="#080D39" transform="translate(134.375,28.875)"/>
<path d="M0 0 C19.8 0 39.6 0 60 0 C59.11279404 4.43602981 58.16047615 6.90684532 56 10.75 C55.46375 11.71421875 54.9275 12.6784375 54.375 13.671875 C53 16 53 16 52 17 C49.97505769 17.09409479 47.9468013 17.11743122 45.91967773 17.11352539 C43.96776772 17.11341209 43.96776772 17.11341209 41.97642517 17.11329651 C40.54548098 17.10818909 39.11453718 17.10297308 37.68359375 17.09765625 C36.2277074 17.09579203 34.77182043 17.09436815 33.31593323 17.09336853 C29.47720621 17.08954365 25.63851681 17.07971364 21.79980469 17.06866455 C17.88542184 17.05844978 13.97103294 17.05387077 10.05664062 17.04882812 C2.37107657 17.03809134 -5.31445645 17.02101529 -13 17 C-12.6875 14.625 -12.6875 14.625 -12 12 C-11.01 11.34 -10.02 10.68 -9 10 C-9.66 11.65 -10.32 13.3 -11 15 C-3.13331657 15.18556501 4.73285222 15.32760577 12.60117626 15.41449738 C16.25516877 15.4562086 19.90766172 15.51274957 23.56079102 15.60351562 C27.08818016 15.69060648 30.61412995 15.73830475 34.14251137 15.75901794 C36.13985874 15.78094146 38.13662848 15.84337219 40.13310242 15.90637207 C46.52728151 16.11833039 46.52728151 16.11833039 51.96548462 13.30639648 C54.4044225 9.63631183 55 7.47349001 55 3 C54.39944794 2.98969254 53.79889587 2.97938507 53.18014526 2.96876526 C46.91816955 2.86041493 40.65632946 2.74584097 34.39453125 2.62768555 C32.05894819 2.58442801 29.72333538 2.54274658 27.38769531 2.50268555 C24.02660158 2.44476031 20.66565634 2.38113014 17.3046875 2.31640625 C16.26384003 2.29969376 15.22299255 2.28298126 14.15060425 2.26576233 C9.33769726 2.16786507 4.73158058 1.99074079 0 1 C0 0.67 0 0.34 0 0 Z " fill="#010526" transform="translate(26,11)"/>
<path d="M0 0 C7.92 0 15.84 0 24 0 C22.68 0.99 21.36 1.98 20 3 C19.1957792 5.59855733 19.1957792 5.59855733 19 8 C19.99 8 20.98 8 22 8 C22.33 7.34 22.66 6.68 23 6 C25.64 6 28.28 6 31 6 C30.835 6.99 30.67 7.98 30.5 9 C29.91525483 13.02732942 29.92867976 16.93474623 30 21 C30.66 21.33 31.32 21.66 32 22 C30.35 22.33 28.7 22.66 27 23 C26.34 21.68 25.68 20.36 25 19 C24.01 19 23.02 19 22 19 C22 18.01 22 17.02 22 16 C21.34 16.33 20.68 16.66 20 17 C19.34 16.67 18.68 16.34 18 16 C18 15.01 18 14.02 18 13 C18.66 13 19.32 13 20 13 C19.67 12.34 19.34 11.68 19 11 C17.68 11 16.36 11 15 11 C15 10.34 15 9.68 15 9 C13.35 9 11.7 9 10 9 C10.33 8.01 10.66 7.02 11 6 C13.31 6.33 15.62 6.66 18 7 C18 5.68 18 4.36 18 3 C15.37348569 3.28119857 12.74930665 3.57443838 10.125 3.875 C9.00544922 3.99294922 9.00544922 3.99294922 7.86328125 4.11328125 C3.47444593 4.5080769 3.47444593 4.5080769 0 7 C0 4.69 0 2.38 0 0 Z M23 11 C23.33 11.66 23.66 12.32 24 13 C24.33 12.34 24.66 11.68 25 11 C24.34 11 23.68 11 23 11 Z M28 13 C28 14.98 28 16.96 28 19 C28.33 19 28.66 19 29 19 C29 17.02 29 15.04 29 13 C28.67 13 28.34 13 28 13 Z " fill="#0A0E3E" transform="translate(84,31)"/>
<path d="M0 0 C0 0.99 0 1.98 0 3 C2.76452033 4.38226016 5.0461363 4.09525387 8.125 4.0625 C9.22070312 4.05347656 10.31640625 4.04445313 11.4453125 4.03515625 C12.28835937 4.02355469 13.13140625 4.01195312 14 4 C14.66 5.32 15.32 6.64 16 8 C15.01 8.33 14.02 8.66 13 9 C13.66 10.32 14.32 11.64 15 13 C14 14 14 14 11.4375 14.0625 C10.633125 14.041875 9.82875 14.02125 9 14 C8.67 13.34 8.34 12.68 8 12 C8.99 12 9.98 12 11 12 C10.67 11.01 10.34 10.02 10 9 C8.35 9.66 6.7 10.32 5 11 C5 11.99 5 12.98 5 14 C4.34 14 3.68 14 3 14 C3 13.01 3 12.02 3 11 C2.34 11 1.68 11 1 11 C0.67 11.99 0.34 12.98 0 14 C-1.32 14 -2.64 14 -4 14 C-4.33 12.68 -4.66 11.36 -5 10 C-5.33 12.64 -5.66 15.28 -6 18 C-8.95183101 15.04816899 -9.08663988 12.04488053 -10 8 C-10.99 8.66 -11.98 9.32 -13 10 C-13.66 8.68 -14.32 7.36 -15 6 C-13.88625 5.7525 -12.7725 5.505 -11.625 5.25 C-7.95791272 4.40634018 -7.95791272 4.40634018 -6.6875 1.9375 C-6.460625 1.298125 -6.23375 0.65875 -6 0 C-3.50907189 -1.24546405 -2.58919267 -0.7767578 0 0 Z M-5 4 C-5.33 5.32 -5.66 6.64 -6 8 C-5.34 7.67 -4.68 7.34 -4 7 C-4.33 6.01 -4.66 5.02 -5 4 Z M-1 7 C-0.01 8.485 -0.01 8.485 1 10 C1 9.01 1 8.02 1 7 C0.34 7 -0.32 7 -1 7 Z M5 8 C5 8.99 5 9.98 5 11 C5.66 10.01 6.32 9.02 7 8 C6.34 8 5.68 8 5 8 Z " fill="#050936" transform="translate(142,35)"/>
<path d="M0 0 C0.97714966 -0.00249756 1.95429932 -0.00499512 2.96105957 -0.00756836 C5.77355469 -0.01347324 8.58594109 -0.01196489 11.3984375 -0.0078125 C12.24117218 -0.00979645 13.08390686 -0.0117804 13.95217896 -0.01382446 C18.26311755 0.00313542 22.41453355 0.08044704 26.625 1.125 C28.62649936 5.12799872 27.80985209 10.22416731 27.8125 14.625 C27.82474609 15.69621094 27.83699219 16.76742187 27.84960938 17.87109375 C27.85154297 18.89332031 27.85347656 19.91554688 27.85546875 20.96875 C27.85957764 21.90912109 27.86368652 22.84949219 27.86791992 23.81835938 C27.625 26.125 27.625 26.125 25.625 28.125 C22 28.25 22 28.25 18.625 28.125 C19.285 27.465 19.945 26.805 20.625 26.125 C22.275 26.125 23.925 26.125 25.625 26.125 C25.625 18.205 25.625 10.285 25.625 2.125 C0.545 2.125 -24.535 2.125 -50.375 2.125 C-50.045 3.775 -49.715 5.425 -49.375 7.125 C-48.75625 6.939375 -48.1375 6.75375 -47.5 6.5625 C-45.375 6.125 -45.375 6.125 -43.375 7.125 C-43.045 6.465 -42.715 5.805 -42.375 5.125 C-40.35677083 5.41796875 -38.33854167 5.7109375 -36.3203125 6.00390625 C-34.29359333 6.2934297 -34.29359333 6.2934297 -32.375 5.125 C-32.375 6.445 -32.375 7.765 -32.375 9.125 C-34.685 8.795 -36.995 8.465 -39.375 8.125 C-39.705 8.785 -40.035 9.445 -40.375 10.125 C-40.91125 9.939375 -41.4475 9.75375 -42 9.5625 C-44.99490614 9.01080676 -47.41245829 9.51902556 -50.375 10.125 C-50.189375 11.07375 -50.00375 12.0225 -49.8125 13 C-49.10731407 17.76979926 -49.75367362 22.37424288 -50.375 27.125 C-50.705 27.125 -51.035 27.125 -51.375 27.125 C-51.375 18.545 -51.375 9.965 -51.375 1.125 C-34.23524233 0.36323299 -17.15434903 0.01548671 0 0 Z " fill="#000221" transform="translate(134.375,28.875)"/>
<path d="M0 0 C-0.5625 2.3125 -0.5625 2.3125 -2 5 C-5.5 6.6875 -5.5 6.6875 -9 8 C-12.08353797 11.08353797 -14.22058385 13.63526953 -15 18 C-14.0925 17.38125 -13.185 16.7625 -12.25 16.125 C-9.85051183 14.55610389 -7.59038388 13.19556179 -5 12 C-4.67 12.66 -4.34 13.32 -4 14 C-3.01 14.33 -2.02 14.66 -1 15 C-3.76264289 15.59732819 -6.16032769 16 -9 16 C-9.33 16.99 -9.66 17.98 -10 19 C-12.875 19.125 -12.875 19.125 -16 19 C-16.66 18.34 -17.32 17.68 -18 17 C-17.625 13.875 -17.625 13.875 -17 11 C-17.66 11 -18.32 11 -19 11 C-18.34 8.69 -17.68 6.38 -17 4 C-15.35 4.33 -13.7 4.66 -12 5 C-11.67 4.01 -11.34 3.02 -11 2 C-3.9360873 -1.73187841 -3.9360873 -1.73187841 0 0 Z " fill="#060C3D" transform="translate(133,33)"/>
<path d="M0 0 C1.92453003 0.0314209 1.92453003 0.0314209 3.88793945 0.06347656 C4.91368828 0.07196625 4.91368828 0.07196625 5.9601593 0.08062744 C8.14122969 0.1029934 10.32064824 0.15318391 12.5012207 0.20410156 C13.98101466 0.22416657 15.4608344 0.24241735 16.94067383 0.25878906 C20.5655583 0.30285682 24.18947826 0.37188334 27.8137207 0.45410156 C26.43074211 4.03180704 24.85755092 7.2025535 22.8137207 10.45410156 C20.8137207 8.64160156 20.8137207 8.64160156 18.8137207 6.45410156 C18.8137207 5.46410156 18.8137207 4.47410156 18.8137207 3.45410156 C15.58457319 3.42492928 12.35545987 3.40724494 9.1262207 3.39160156 C8.21420898 3.38322266 7.30219727 3.37484375 6.36254883 3.36621094 C5.03320312 3.36137695 5.03320312 3.36137695 3.67700195 3.35644531 C2.86529541 3.3512085 2.05358887 3.34597168 1.21728516 3.34057617 C-1.33492603 3.46112246 -3.69654066 3.89415256 -6.1862793 4.45410156 C-4.45569824 1.22219252 -3.70775861 0.52842165 0 0 Z " fill="#0F1641" transform="translate(47.186279296875,29.5458984375)"/>
<path d="M0 0 C1.98 0 3.96 0 6 0 C5.4375 2.875 5.4375 2.875 4 6 C0.375 7.375 0.375 7.375 -3 8 C-3 9.32 -3 10.64 -3 12 C-4.6796875 13.703125 -4.6796875 13.703125 -6.875 15.25 C-7.59429687 15.77078125 -8.31359375 16.2915625 -9.0546875 16.828125 C-11 18 -11 18 -13 18 C-12.52190761 13.79278701 -11.9754159 11.08168075 -9 8 C-6.0728881 5.97353791 -3.50611958 4.6492814 0 4 C0 2.68 0 1.36 0 0 Z " fill="#1E2762" transform="translate(131,33)"/>
<path d="M0 0 C0.66 0.33 1.32 0.66 2 1 C4.04055005 1.07065617 6.08334257 1.08421976 8.125 1.0625 C9.22070312 1.05347656 10.31640625 1.04445312 11.4453125 1.03515625 C12.28835937 1.02355469 13.13140625 1.01195312 14 1 C14.66 2.32 15.32 3.64 16 5 C15.01 5.33 14.02 5.66 13 6 C13.66 7.32 14.32 8.64 15 10 C14 11 14 11 11.4375 11.0625 C10.633125 11.041875 9.82875 11.02125 9 11 C8.67 10.34 8.34 9.68 8 9 C8.99 9 9.98 9 11 9 C10.67 8.01 10.34 7.02 10 6 C8.35 6.66 6.7 7.32 5 8 C5 8.99 5 9.98 5 11 C4.34 11 3.68 11 3 11 C2.731875 9.88625 2.46375 8.7725 2.1875 7.625 C1.34190981 3.78159049 1.34190981 3.78159049 -2 2 C-1.34 1.34 -0.68 0.68 0 0 Z M5 5 C5 5.99 5 6.98 5 8 C5.66 7.01 6.32 6.02 7 5 C6.34 5 5.68 5 5 5 Z " fill="#070C41" transform="translate(142,38)"/>
<path d="M0 0 C1.06863281 0.01804687 2.13726562 0.03609375 3.23828125 0.0546875 C4.04652344 0.07789062 4.85476562 0.10109375 5.6875 0.125 C3.8125 1.1875 3.8125 1.1875 1.6875 2.125 C1.0275 1.795 0.3675 1.465 -0.3125 1.125 C-0.6425 2.775 -0.9725 4.425 -1.3125 6.125 C-4.3125 7.125 -4.3125 7.125 -7.3125 6.125 C-7.6425 7.115 -7.9725 8.105 -8.3125 9.125 C-10.2925 9.125 -12.2725 9.125 -14.3125 9.125 C-13.3225 8.465 -12.3325 7.805 -11.3125 7.125 C-11.06219023 4.54119823 -11.06219023 4.54119823 -11.3125 2.125 C-7.38392246 0.27368517 -4.32474888 -0.09504943 0 0 Z " fill="#1E265F" transform="translate(114.3125,30.875)"/>
<path d="M0 0 C17.49 0 34.98 0 53 0 C52.34 1.98 51.68 3.96 51 6 C50.34 4.68 49.68 3.36 49 2 C24.745 1.505 24.745 1.505 0 1 C0 0.67 0 0.34 0 0 Z " fill="#121645" transform="translate(32,12)"/>
<path d="M0 0 C3.875 1.875 3.875 1.875 5 3 C5.52681237 6.4977891 5.17718613 7.75026235 3.1015625 10.67578125 C2.28429688 11.54589844 1.46703125 12.41601562 0.625 13.3125 C-0.18710937 14.19550781 -0.99921875 15.07851562 -1.8359375 15.98828125 C-4 18 -4 18 -6 18 C-5.49396008 15.83125748 -5.00016187 14.00032373 -4 12 C-4.66 11.67 -5.32 11.34 -6 11 C-5.2575 10.95875 -4.515 10.9175 -3.75 10.875 C0.09551776 9.65142617 1.04305483 7.40653418 3 4 C2.01 2.68 1.02 1.36 0 0 Z " fill="#161C47" transform="translate(49,55)"/>
<path d="M0 0 C2.53642002 -0.00714485 5.00134634 0.10727734 7.5234375 0.3671875 C7.1934375 1.0271875 6.8634375 1.6871875 6.5234375 2.3671875 C4.24687866 2.92853078 1.97019416 3.25965118 -0.34765625 3.609375 C-2.64978707 4.17689927 -2.64978707 4.17689927 -3.69921875 6.375 C-3.95574219 7.03242188 -4.21226563 7.68984375 -4.4765625 8.3671875 C-4.8065625 8.6971875 -5.1365625 9.0271875 -5.4765625 9.3671875 C-5.4765625 10.3571875 -5.4765625 11.3471875 -5.4765625 12.3671875 C-6.1365625 13.0271875 -6.7965625 13.6871875 -7.4765625 14.3671875 C-8.4665625 14.3671875 -9.4565625 14.3671875 -10.4765625 14.3671875 C-9.54325867 12.41122097 -8.58763934 10.472964 -7.59375 8.546875 C-6.63482641 6.67596814 -5.73688099 4.77402732 -4.8515625 2.8671875 C-2.4765625 0.3671875 -2.4765625 0.3671875 0 0 Z " fill="#1D244C" transform="translate(24.4765625,11.6328125)"/>
<path d="M0 0 C3.3 0.66 6.6 1.32 10 2 C10 5 10 5 8 8 C7.67 8.66 7.34 9.32 7 10 C6.01 10 5.02 10 4 10 C4 8.35 4 6.7 4 5 C2.35 5 0.7 5 -1 5 C-0.67 3.35 -0.34 1.7 0 0 Z M5 5 C6 9 6 9 6 9 Z " fill="#02042C" transform="translate(93,39)"/>
<path d="M0 0 C1.98 0.495 1.98 0.495 4 1 C3.7525 1.7425 3.505 2.485 3.25 3.25 C3.1675 4.1575 3.085 5.065 3 6 C4.83358335 8.33454661 4.83358335 8.33454661 7 10 C6.67 10.66 6.34 11.32 6 12 C4.1875 11.9375 4.1875 11.9375 2 11 C-1.15759312 5.22922636 -1.15759312 5.22922636 -0.6875 1.5625 C-0.460625 1.046875 -0.23375 0.53125 0 0 Z M3 8 C3.99 9.485 3.99 9.485 5 11 C5 10.01 5 9.02 5 8 C4.34 8 3.68 8 3 8 Z " fill="#01032D" transform="translate(138,34)"/>
<path d="M0 0 C0.66 0 1.32 0 2 0 C3.28317892 3.84953676 3.06643637 6.94738135 3 11 C3.66 11.33 4.32 11.66 5 12 C3.35 12.33 1.7 12.66 0 13 C-0.66 11.68 -1.32 10.36 -2 9 C-1.34 9 -0.68 9 0 9 C-0.34444881 6.52733235 -0.34444881 6.52733235 -1 4 C-1.66 3.67 -2.32 3.34 -3 3 C-2.01 3 -1.02 3 0 3 C0 2.01 0 1.02 0 0 Z M1 3 C1 4.98 1 6.96 1 9 C1.33 9 1.66 9 2 9 C2 7.02 2 5.04 2 3 C1.67 3 1.34 3 1 3 Z " fill="#0E1445" transform="translate(111,41)"/>
<path d="M0 0 C2.0625 0.4375 2.0625 0.4375 4 1 C3.67 2.98 3.34 4.96 3 7 C3.99 7.33 4.98 7.66 6 8 C3.03 7.505 3.03 7.505 0 7 C-0.33 7.99 -0.66 8.98 -1 10 C-1.02689216 8.52093108 -1.04634621 7.04172517 -1.0625 5.5625 C-1.07410156 4.73878906 -1.08570312 3.91507813 -1.09765625 3.06640625 C-1 1 -1 1 0 0 Z " fill="#091141" transform="translate(85,45)"/>
<path d="M0 0 C0.66 1.32 1.32 2.64 2 4 C1.01171875 5.984375 1.01171875 5.984375 -1 8 C-3.87038052 8.29561076 -6.33754745 8.37943016 -9.1875 8.25 C-9.93708984 8.23195313 -10.68667969 8.21390625 -11.45898438 8.1953125 C-13.3065371 8.14824109 -15.15343159 8.07649766 -17 8 C-17 7.67 -17 7.34 -17 7 C-12.05 6.67 -7.1 6.34 -2 6 C-2 4.68 -2 3.36 -2 2 C-1.34 2 -0.68 2 0 2 C0 1.34 0 0.68 0 0 Z " fill="#0E123A" transform="translate(67,38)"/>
<path d="M0 0 C0.33 0.66 0.66 1.32 1 2 C1.66 2.33 2.32 2.66 3 3 C1.68 3 0.36 3 -1 3 C-1.185625 4.4540625 -1.185625 4.4540625 -1.375 5.9375 C-1.58125 6.948125 -1.7875 7.95875 -2 9 C-2.99 9.495 -2.99 9.495 -4 10 C-4.33 10.99 -4.66 11.98 -5 13 C-5.66 13 -6.32 13 -7 13 C-5.58832253 7.73829306 -3.25149768 4.27828642 0 0 Z " fill="#161A3E" transform="translate(40,34)"/>
<path d="M0 0 C1.32 0.66 2.64 1.32 4 2 C3.49396008 4.16874252 3.00016187 5.99967627 2 8 C1.01 7.67 0.02 7.34 -1 7 C-1.04254356 5.00045254 -1.04080783 2.99958364 -1 1 C-0.67 0.67 -0.34 0.34 0 0 Z " fill="#182152" transform="translate(41,64)"/>
<path d="M0 0 C2.00720923 0.28674418 4.0085944 0.61866701 6 1 C6.125 3.875 6.125 3.875 6 7 C5.34 7.66 4.68 8.32 4 9 C3.34 9 2.68 9 2 9 C2.0928125 7.576875 2.0928125 7.576875 2.1875 6.125 C2.125625 5.09375 2.06375 4.0625 2 3 C1.01 2.34 0.02 1.68 -1 1 C-0.67 0.67 -0.34 0.34 0 0 Z M3 4 C4 6 4 6 4 6 Z " fill="#00022D" transform="translate(86,43)"/>
<path d="M0 0 C3.875 1.875 3.875 1.875 5 3 C5.25 5.4375 5.25 5.4375 5 8 C4.01 8.66 3.02 9.32 2 10 C1.375 8.125 1.375 8.125 1 6 C1.66 5.34 2.32 4.68 3 4 C2.01 2.68 1.02 1.36 0 0 Z " fill="#0E133C" transform="translate(49,55)"/>
<path d="M0 0 C0.763125 0.20625 1.52625 0.4125 2.3125 0.625 C2.3125 1.945 2.3125 3.265 2.3125 4.625 C0.9925 4.955 -0.3275 5.285 -1.6875 5.625 C-1.6875 4.635 -1.6875 3.645 -1.6875 2.625 C-2.6775 3.12 -2.6775 3.12 -3.6875 3.625 C-4.3475 2.965 -5.0075 2.305 -5.6875 1.625 C-2.6875 -0.375 -2.6875 -0.375 0 0 Z " fill="#01022F" transform="translate(107.6875,44.375)"/>
<path d="M0 0 C0.66 0 1.32 0 2 0 C0.84414715 3.91211733 -0.35534962 6.8745041 -3 10 C-4.32 9.67 -5.64 9.34 -7 9 C-6.21625 8.2575 -5.4325 7.515 -4.625 6.75 C-2.43495469 4.45566682 -1.17268614 2.87841142 0 0 Z " fill="#02041F" transform="translate(81,18)"/>
<path d="M0 0 C-2.66666667 1.33333333 -5.33333333 2.66666667 -8 4 C-8 2.68 -8 1.36 -8 0 C-5.13822943 -1.43088528 -3.06624227 -0.59991697 0 0 Z " fill="#00032B" transform="translate(130,35)"/>
<path d="M0 0 C4.29 0 8.58 0 13 0 C12.34 1.98 11.68 3.96 11 6 C10.64808594 5.03320312 10.64808594 5.03320312 10.2890625 4.046875 C9.18838927 1.7922092 9.18838927 1.7922092 6.8359375 1.390625 C5.61777344 1.32101562 5.61777344 1.32101562 4.375 1.25 C3.14910156 1.16492188 3.14910156 1.16492188 1.8984375 1.078125 C1.27195312 1.05234375 0.64546875 1.0265625 0 1 C0 0.67 0 0.34 0 0 Z " fill="#080C3A" transform="translate(72,12)"/>
<path d="M0 0 C1.15941038 3.47823115 0.70820884 5.45895578 0 9 C-0.99 9.33 -1.98 9.66 -3 10 C-2.49287967 6.28111761 -1.88391785 3.26545761 0 0 Z " fill="#192256" transform="translate(121,41)"/>
<path d="M0 0 C-1.65 1.65 -3.3 3.3 -5 5 C-5.66 4.67 -6.32 4.34 -7 4 C-6.67 2.68 -6.34 1.36 -6 0 C-2.25 -1.125 -2.25 -1.125 0 0 Z " fill="#12174C" transform="translate(108,47)"/>
<path d="M0 0 C0.33 1.65 0.66 3.3 1 5 C-0.9375 4.6875 -0.9375 4.6875 -3 4 C-3.33 3.01 -3.66 2.02 -4 1 C-2 0 -2 0 0 0 Z " fill="#1A215A" transform="translate(127,40)"/>
<path d="M0 0 C1.37562854 1.28965176 2.70766393 2.62689293 4 4 C4 4.66 4 5.32 4 6 C4.66 6.33 5.32 6.66 6 7 C5.34 7 4.68 7 4 7 C3.67 7.66 3.34 8.32 3 9 C0 3.375 0 3.375 0 0 Z " fill="#111634" transform="translate(31,53)"/>
<path d="M0 0 C0.66 0.99 1.32 1.98 2 3 C-1.08809695 4.76462683 -2.23312136 5 -6 5 C-6 4.01 -6 3.02 -6 2 C-3.03 2.495 -3.03 2.495 0 3 C0 2.01 0 1.02 0 0 Z " fill="#18204E" transform="translate(91,50)"/>
<path d="M0 0 C1.32 0 2.64 0 4 0 C3.67 1.65 3.34 3.3 3 5 C1.68 4.67 0.36 4.34 -1 4 C-0.67 2.68 -0.34 1.36 0 0 Z " fill="#191F52" transform="translate(118,33)"/>
</svg>
